# xmcd
#
# Track frame offsets:
#	150
#	26146
#	48853
#	71522
#	90607
#	115369
#	137411
#	165698
#	180052
#	198783
#
# Disc length: 3077 seconds
#
# Revision: 0
# Processed by: cddbd v1.5.1PL2 Copyright (c) Steve Scherf et al.
# Submitted via: EasyCDDAExtractor 9.0.0.1
#
DISCID=780c030a
DTITLE=泽朗多吉 - 虔诚
DYEAR=2006
DGENRE=民族
TTITLE0=羊卓啦
TTITLE1=虔诚
TTITLE2=方向
TTITLE3=寻梦
TTITLE4=天唱
TTITLE5=真言
TTITLE6=生命呼唤
TTITLE7=四姑娘恋曲
TTITLE8=108
TTITLE9=十二杯酒
EXTD=
EXTT0=
EXTT1=
EXTT2=
EXTT3=
EXTT4=
EXTT5=
EXTT6=
EXTT7=
EXTT8=
EXTT9=
PLAYORDER=
